<?xml version="1.0" standalone="no"?><!DOCTYPE svg PUBLIC "-//W3C//DTD SVG 1.1//EN" "http://www.w3.org/Graphics/SVG/1.1/DTD/svg11.dtd"><svg t="1782907888021" class="icon" viewBox="0 0 1024 1024" version="1.1" xmlns="http://www.w3.org/2000/svg" p-id="10422" xmlns:xlink="http://www.w3.org/1999/xlink" width="256" height="256"><path d="M392.825905 394.044952c22.308571 0 42.25219 3.925333 59.952762 11.751619 16.554667 7.314286 30.45181 17.603048 41.74019 30.915048l-39.155809 35.425524c-16.262095-18.212571-35.961905-27.501714-58.977524-27.501714-14.09219 0-26.770286 3.096381-37.961143 9.386666a65.511619 65.511619 0 0 0-26.014476 26.575238c-6.144 11.410286-9.167238 24.429714-9.167238 38.960762 0 14.531048 3.023238 27.550476 9.167238 38.960762 6.144 11.410286 14.848 20.309333 26.014476 26.575238 11.215238 6.290286 23.893333 9.386667 37.961143 9.386667 23.015619 0 42.715429-9.264762 59.001905-27.501714l39.131428 35.425523a114.590476 114.590476 0 0 1-41.74019 30.939429c-17.700571 7.801905-37.668571 11.751619-59.952762 11.751619-25.502476 0-48.274286-5.38819-68.388572-16.091429a119.759238 119.759238 0 0 1-47.37219-44.617142c-11.459048-19.017143-17.212952-40.594286-17.212953-64.828953 0-24.234667 5.753905-45.83619 17.212953-64.853333a119.759238 119.759238 0 0 1 47.37219-44.617143c20.114286-10.678857 42.910476-16.067048 68.388572-16.067048zM720.944762 405.796571c-17.67619-7.801905-37.64419-11.751619-59.928381-11.751619-25.502476 0-48.274286 5.36381-68.388571 16.067048a119.759238 119.759238 0 0 0-47.372191 44.617143c-11.459048 19.017143-17.212952 40.594286-17.212952 64.853333 0 24.210286 5.753905 45.787429 17.212952 64.804572a119.759238 119.759238 0 0 0 47.372191 44.617142c20.138667 10.703238 42.910476 16.091429 68.388571 16.091429 22.308571 0 42.25219-3.949714 59.952762-11.751619a114.590476 114.590476 0 0 0 41.74019-30.939429l-39.155809-35.425523c-16.262095 18.212571-35.961905 27.501714-58.977524 27.501714A76.239238 76.239238 0 0 1 626.614857 585.142857a65.511619 65.511619 0 0 1-26.014476-26.575238c-6.144-11.459048-9.167238-24.454095-9.167238-38.985143 0-14.531048 3.023238-27.550476 9.167238-38.960762a65.511619 65.511619 0 0 1 26.014476-26.575238 76.214857 76.214857 0 0 1 37.961143-9.386666c23.015619 0 42.715429 9.289143 59.001905 27.501714l39.131428-35.425524a114.639238 114.639238 0 0 0-41.74019-30.915048z" p-id="10423"></path><path d="M106.666667 202.678857C106.666667 185.002667 121.002667 170.666667 138.678857 170.666667h746.666667c17.65181 0 31.98781 14.336 31.987809 32.01219v618.642286c0 17.67619-14.336 32.01219-32.01219 32.01219H138.703238a31.98781 31.98781 0 0 1-32.01219-32.01219V202.703238z m58.660571 591.969524H858.697143V229.351619H165.302857v565.345524z" p-id="10424"></path></svg>