<?xml version="1.0" standalone="no"?><!DOCTYPE svg PUBLIC "-//W3C//DTD SVG 1.1//EN" "http://www.w3.org/Graphics/SVG/1.1/DTD/svg11.dtd"><svg t="1782375270278" class="icon" viewBox="0 0 1024 1024" version="1.1" xmlns="http://www.w3.org/2000/svg" p-id="12464" xmlns:xlink="http://www.w3.org/1999/xlink" width="200" height="200"><path d="M229.376 229.376v-62.72c0-59.648 48.384-108.032 107.968-108.032h520c59.648 0 108.032 48.384 108.032 108.032v520c0 59.648-48.32 107.968-108.032 107.968h-62.656v62.72c0 59.648-48.32 108.032-108.032 108.032H166.656a107.968 107.968 0 0 1-107.968-108.032V337.344c0-59.584 48.384-107.968 107.968-107.968h62.72z m96-62.72v62.72h361.344c59.584 0 107.968 48.384 107.968 107.968v361.28h62.72a12.032 12.032 0 0 0 11.968-12.032V166.656a12.032 12.032 0 0 0-12.032-12.032H337.344a11.968 11.968 0 0 0-11.968 12.032zM154.688 337.28v520c0 6.656 5.376 12.032 11.968 12.032h520a12.032 12.032 0 0 0 12.032-12.032V337.344a12.032 12.032 0 0 0-12.032-11.968H166.656a12.032 12.032 0 0 0-11.968 11.968z" p-id="12465"></path></svg>