<?xml version="1.0" standalone="no"?><!DOCTYPE svg PUBLIC "-//W3C//DTD SVG 1.1//EN" "http://www.w3.org/Graphics/SVG/1.1/DTD/svg11.dtd"><svg t="1782797217109" class="icon" viewBox="0 0 1024 1024" version="1.1" xmlns="http://www.w3.org/2000/svg" p-id="27854" xmlns:xlink="http://www.w3.org/1999/xlink" width="200" height="200"><path d="M862.4 102.4c22.08 0 40 17.92 40 40v752c0 22.08-17.92 40-40 40H161.6c-22.08 0-40-17.92-40-40V142.4c0-22.08 17.92-40 40-40z m-24 64H185.6v704h652.8v-704zM745.6 768v64H302.4v-64H745.6zM606.496 256.416l1.376 0.192a4.8 4.8 0 0 1 3.2 5.984l-51.616 170.272h118.176a4.8 4.8 0 0 1 3.648 7.904l-221.76 260.8a4.8 4.8 0 0 1-8.224-4.608l57.248-176.576H394.24a4.8 4.8 0 0 1-3.68-7.872l212.256-254.4a4.8 4.8 0 0 1 5.056-1.504z" fill="#515151" p-id="27855"></path></svg>