<?xml version="1.0" standalone="no"?><!DOCTYPE svg PUBLIC "-//W3C//DTD SVG 1.1//EN" "http://www.w3.org/Graphics/SVG/1.1/DTD/svg11.dtd"><svg t="1782377762304" class="icon" viewBox="0 0 1024 1024" version="1.1" xmlns="http://www.w3.org/2000/svg" p-id="7082" xmlns:xlink="http://www.w3.org/1999/xlink" width="200" height="200"><path d="M391.529412 457.788235h96.37647v96.376471H391.529412zM463.811765 313.223529h96.37647v96.376471H463.811765zM608.376471 313.223529h96.37647v96.376471h-96.37647zM180.705882 313.223529h96.376471v96.376471H180.705882zM536.094118 457.788235h96.37647v96.376471H536.094118zM325.270588 313.223529H421.647059v96.376471H325.270588zM252.988235 457.788235h96.376471v96.376471H252.988235zM746.917647 313.223529H843.294118v96.376471h-96.376471zM674.635294 457.788235h96.376471v96.376471h-96.376471zM301.176471 596.329412h421.647058v96.37647H301.176471z" fill="#5D6269" p-id="7083"></path><path d="M891.482353 168.658824H132.517647c-54.211765 0-102.4 42.164706-102.4 102.4v469.835294c0 54.211765 42.164706 102.4 102.4 102.4h752.941177c54.211765 0 102.4-42.164706 102.4-102.4V265.035294c0-54.211765-42.164706-96.376471-96.376471-96.37647z m30.117647 560.188235c0 24.094118-18.070588 42.164706-42.164706 42.164706H150.588235c-24.094118 0-42.164706-18.070588-42.164706-42.164706V277.082353c0-18.070588 18.070588-36.141176 42.164706-36.141177h728.847059c24.094118 0 42.164706 18.070588 42.164706 36.141177v451.764706z" fill="#5D6269" p-id="7084"></path></svg>