<?xml version="1.0" standalone="no"?><!DOCTYPE svg PUBLIC "-//W3C//DTD SVG 1.1//EN" "http://www.w3.org/Graphics/SVG/1.1/DTD/svg11.dtd"><svg t="1782894174733" class="icon" viewBox="0 0 1024 1024" version="1.1" xmlns="http://www.w3.org/2000/svg" p-id="9430" xmlns:xlink="http://www.w3.org/1999/xlink" width="200" height="200"><path d="M512 85.321143c235.666286 0 426.678857 191.012571 426.678857 426.678857h53.357714l-80.018285 128-79.981715-128h42.642286a362.642286 362.642286 0 1 0-114.322286 264.301714l41.216 49.078857A425.142857 425.142857 0 0 1 512 938.678857C276.370286 938.678857 85.357714 747.629714 85.357714 512c0-235.666286 191.012571-426.678857 426.678857-426.678857z m164.425143 277.357714v48.64H563.931429l-7.021715 63.268572a86.052571 86.052571 0 0 1 42.532572-11.044572c26.989714 0 48.054857 8.630857 63.378285 26.002286 15.286857 17.408 22.893714 41.728 22.893715 72.96 0 19.017143-3.84 36.022857-11.556572 51.053714-7.68 14.994286-18.761143 26.660571-33.097143 34.962286-14.372571 8.228571-31.378286 12.397714-50.944 12.397714-17.078857 0-32.914286-3.584-47.579428-10.825143a85.357714 85.357714 0 0 1-34.706286-30.390857 85.174857 85.174857 0 0 1-13.531428-44.617143h55.588571c1.170286 12.214857 5.266286 21.723429 12.361143 28.525715 7.058286 6.875429 16.310857 10.24 27.684571 10.24 12.690286 0 22.491429-4.754286 29.366857-14.262858 6.838857-9.472 10.24-22.893714 10.24-40.301714 0-16.713143-3.913143-29.513143-11.812571-38.4-7.899429-8.886857-19.126857-13.312-33.645714-13.312-13.312 0-24.137143 3.620571-32.402286 10.898286l-5.485714 5.266286-44.653715-11.52 16.310858-149.577143h158.537142z m-228.388572 0v298.24h-56.173714v-228.717714l-67.035428 21.577143V406.308571l117.174857-43.629714h6.034285z" p-id="9431"></path></svg>