<?xml version="1.0" standalone="no"?><!DOCTYPE svg PUBLIC "-//W3C//DTD SVG 1.1//EN" "http://www.w3.org/Graphics/SVG/1.1/DTD/svg11.dtd"><svg t="1782894159135" class="icon" viewBox="0 0 1024 1024" version="1.1" xmlns="http://www.w3.org/2000/svg" p-id="8291" xmlns:xlink="http://www.w3.org/1999/xlink" width="200" height="200"><path d="M512 85.321143c235.666286 0 426.678857 191.012571 426.678857 426.678857 0 235.629714-191.049143 426.678857-426.678857 426.678857a425.142857 425.142857 0 0 1-289.536-113.298286l41.216-49.078857A362.678857 362.678857 0 1 0 149.321143 512H192l-80.018286 128L32.036571 512h53.321143C85.321143 276.333714 276.333714 85.321143 512 85.321143z m164.388571 277.357714v48.64H563.931429l-6.985143 63.268572a86.016 86.016 0 0 1 42.532571-11.044572c26.953143 0 48.018286 8.630857 63.341714 26.002286 15.286857 17.408 22.930286 41.728 22.930286 72.96 0 19.017143-3.84 36.022857-11.593143 51.053714-7.68 14.994286-18.761143 26.660571-33.097143 34.962286-14.372571 8.228571-31.341714 12.397714-50.944 12.397714-17.042286 0-32.914286-3.584-47.542857-10.825143a85.394286 85.394286 0 0 1-34.742857-30.390857 85.211429 85.211429 0 0 1-13.494857-44.617143h55.588571c1.170286 12.214857 5.266286 21.723429 12.324572 28.525715 7.058286 6.875429 16.310857 10.24 27.684571 10.24 12.690286 0 22.491429-4.754286 29.366857-14.262858 6.838857-9.472 10.24-22.893714 10.24-40.301714 0-16.713143-3.913143-29.513143-11.812571-38.4-7.899429-8.886857-19.126857-13.312-33.645714-13.312-13.275429 0-24.137143 3.620571-32.402286 10.898286l-5.485714 5.266286-44.617143-11.52 16.274286-149.577143h158.537142z m-228.388571 0v298.24h-56.137143v-228.717714l-67.035428 21.577143V406.308571l117.174857-43.629714h5.997714z" p-id="8292"></path></svg>