<?xml version="1.0" standalone="no"?><!DOCTYPE svg PUBLIC "-//W3C//DTD SVG 1.1//EN" "http://www.w3.org/Graphics/SVG/1.1/DTD/svg11.dtd"><svg t="1783583054551" class="icon" viewBox="0 0 1024 1024" version="1.1" xmlns="http://www.w3.org/2000/svg" p-id="4134" xmlns:xlink="http://www.w3.org/1999/xlink" width="256" height="256"><path d="M336.7 339.8c6.5 7.1 15.3 10.7 24.2 10.7 7.9 0 15.9-2.9 22.2-8.7 13.4-12.3 14.3-33.2 2-46.6l-132-144c-12.4-13.6-36-13.6-48.4 0l-132 144c-12.3 13.4-11.4 34.3 2 46.6 13.4 12.3 34.2 11.5 46.5-2l74.9-81.7v507.7l-74.9-81.7c-12.3-13.4-33.1-14.3-46.5-2-13.4 12.3-14.3 33.2-2 46.6l132 144c0.1 0.2 0.3 0.3 0.5 0.4 1 1 2.1 1.9 3.2 2.8l1.8 1.5c1.3 0.9 2.7 1.6 4.1 2.3 0.5 0.3 1 0.6 1.6 0.9 1.7 0.7 3.5 1.3 5.4 1.7l0.9 0.3c2.2 0.5 4.4 0.7 6.7 0.7s4.6-0.3 6.7-0.7l0.9-0.3c1.9-0.4 3.7-1 5.4-1.7 0.5-0.2 1-0.6 1.6-0.8 1.4-0.7 2.8-1.4 4.1-2.4 0.6-0.4 1.2-1 1.8-1.5 1.1-0.9 2.2-1.8 3.2-2.8 0.1-0.2 0.3-0.3 0.5-0.4l132-144c12.3-13.4 11.4-34.3-2-46.6-13.4-12.3-34.2-11.4-46.5 2l-74.9 81.7V258.1l75 81.7z m590.2 142.8H512.2c-18.2 0-32.9 14.8-32.9 33s14.7 33 32.9 33H927c18.2 0 32.9-14.7 32.9-33-0.1-18.3-14.8-33-33-33zM512.2 317.5H927c18.2 0 32.9-14.7 32.9-33 0-18.2-14.7-33-32.9-33H512.2c-18.2 0-32.9 14.8-32.9 33s14.7 33 32.9 33z m414.7 396H512.2c-18.2 0-32.9 14.8-32.9 33s14.7 33 32.9 33H927c18.2 0 32.9-14.8 32.9-33-0.1-18.2-14.8-33-33-33z" fill="#2c2c2c" p-id="4135"></path></svg>