<?xml version="1.0" standalone="no"?><!DOCTYPE svg PUBLIC "-//W3C//DTD SVG 1.1//EN" "http://www.w3.org/Graphics/SVG/1.1/DTD/svg11.dtd"><svg t="1782896588363" class="icon" viewBox="0 0 1024 1024" version="1.1" xmlns="http://www.w3.org/2000/svg" p-id="8052" width="200" height="200" xmlns:xlink="http://www.w3.org/1999/xlink"><path d="M192 448c-35.2 0-64 28.8-64 64s28.8 64 64 64S256 547.2 256 512s-28.8-64-64-64z m640 0c-35.2 0-64 28.8-64 64s28.8 64 64 64S896 547.2 896 512s-28.8-64-64-64z m-320 0c-35.2 0-64 28.8-64 64s28.8 64 64 64 64-28.8 64-64-28.8-64-64-64z" p-id="8053"></path></svg>