<?xml version="1.0" standalone="no"?><!DOCTYPE svg PUBLIC "-//W3C//DTD SVG 1.1//EN" "http://www.w3.org/Graphics/SVG/1.1/DTD/svg11.dtd"><svg t="1782790778780" class="icon" viewBox="0 0 1024 1024" version="1.1" xmlns="http://www.w3.org/2000/svg" p-id="4646" xmlns:xlink="http://www.w3.org/1999/xlink" width="200" height="200"><path d="M735.5 708.8v137.4c0.6 17.3-7.8 25.9-25.2 25.9h-533c-16.8 0.7-25.2-7.9-25.2-25.9V320c0-9.9 5.2-14.8 15.6-14.6h170.1c15.6 0 28.3-12.7 28.3-28.3 0-15.6-12.7-28.3-28.3-28.3H167.7c-47.1 0-70.7 23.7-70.7 71.2v526.2c2.8 53.8 29.5 80.8 80.3 80.8h533.1c49.8 0 76-26.9 78.6-80.8V708.8c0-14.7-12-26.7-26.7-26.7-14.8 0-26.8 12-26.8 26.7zM288.9 512.6h87.6c14.6 0 26.4-11.8 26.4-26.4 0-14.6-11.8-26.4-26.4-26.4h-87.6c-14.6 0-26.4 11.8-26.4 26.4-0.1 14.5 11.8 26.4 26.4 26.4z m0.4 204.4h307.3c14.8 0 26.8-12 26.8-26.8s-12-26.8-26.8-26.8H289.3c-14.8 0-26.8 12-26.8 26.8-0.1 14.7 12 26.8 26.8 26.8z m617.2-372.1c17.8-13.5 24.9-38 17.6-60.9-6.9-21.8-24.8-35.8-45.5-35.8H775.9l-36.4-114.4c-6.2-22.2-24.2-36.6-46-36.8-22 0-40.1 14.1-46.6 36l-36.3 115.2H506.3c-21.6-0.1-39.5 13-46.6 34.2-7.2 21.6-0.5 45.3 16.9 58.9l83.2 70-30.9 104.1c-7.1 22.1 0.3 45.8 18.3 59.1 17.3 12.7 39.4 12.3 56.4-1.1l77.9-61.7 94.3 63.1c8.8 7.2 36.4 14.6 56.4 2 18.9-11.8 25.9-36.6 19.2-58.8l-19.2-114.4 74.3-58.7z m-127.9 86.7L802 531l-83.6-60.9c-18.1-14.8-43.5-15-61.8-0.5L578.2 531l31.2-101c7.3-22.8 0-47.5-18.2-61.7L510.6 302h105.7c20 0.6 34.4-11.4 43.2-35.9 20.6-81.8 31.8-122.7 33.6-122.7 1.9 0.2 16.3 41 43.2 122.7 6.2 21.9 24.5 35.9 48.6 35.9h95L795 368.3c-18.4 13.8-23.3 40.4-16.4 63.3z" p-id="4647"></path></svg>