<?xml version="1.0" standalone="no"?><!DOCTYPE svg PUBLIC "-//W3C//DTD SVG 1.1//EN" "http://www.w3.org/Graphics/SVG/1.1/DTD/svg11.dtd"><svg t="1783580459946" class="icon" viewBox="0 0 1024 1024" version="1.1" xmlns="http://www.w3.org/2000/svg" p-id="12408" xmlns:xlink="http://www.w3.org/1999/xlink" width="256" height="256"><path d="M755.234133 541.9008c4.232533-4.3008 8.465067-8.533333 8.465067-12.834133 4.3008-8.533333 4.3008-21.367467 0-34.133334-4.232533-4.3008-4.232533-8.533333-8.465067-12.834133l-256-256a41.233067 41.233067 0 0 0-59.733333 0 41.233067 41.233067 0 0 0 0 59.8016l183.432533 183.432533h-494.933333c-25.6 0-42.666667 17.066667-42.666667 42.666667s17.066667 42.666667 42.666667 42.666667h494.933333l-183.5008 183.5008a46.08 46.08 0 0 0-12.765866 29.832533c0 8.533333 4.3008 21.367467 12.834133 29.9008 17.066667 17.066667 42.666667 17.066667 59.733333 0l256-256z m183.432534 268.765867v-597.333334c0-25.6-17.066667-42.666667-42.666667-42.666666s-42.666667 17.066667-42.666667 42.666666v597.333334c0 25.6 17.066667 42.666667 42.666667 42.666666s42.666667-17.066667 42.666667-42.666666z" fill="#2c2c2c" p-id="12409"></path></svg>