<?xml version="1.0" standalone="no"?><!DOCTYPE svg PUBLIC "-//W3C//DTD SVG 1.1//EN" "http://www.w3.org/Graphics/SVG/1.1/DTD/svg11.dtd"><svg t="1783352604419" class="icon" viewBox="0 0 1024 1024" version="1.1" xmlns="http://www.w3.org/2000/svg" p-id="14633" xmlns:xlink="http://www.w3.org/1999/xlink" width="256" height="256"><path d="M672.39020633 874.16009099c-47.74261005 0-126.28148389 13.63388765-136.50689965 44.35814145h-44.35814146c-13.65789096-30.7002505-88.74028625-44.35814146-136.53090295-44.35814145H102.50330444v-662.01165673h272.98979595c58.01603242 0 109.19111772 30.7002505 136.50689961 75.05839197 27.31578191-44.35814146 78.51487052-75.05839198 136.50689961-75.05839197H921.49669556v662.03566003H672.39020633z m-180.86504111-525.52876044c0-54.5835572-58.01603242-92.12475484-112.59958961-92.12475484H150.29392114v569.88690189h204.72434447c44.38214478 0 116.03206485 0 136.53090294 34.13272573V348.63133055z m385.61338888-92.12475484h-228.63165449c-57.9920291 0-112.59958962 37.51719433-112.59958959 92.12475484v508.46239757c20.4988381-34.13272574 92.12475484-34.13272574 136.50689961-34.13272574h204.74834779V256.50657571z m0 0" fill="" p-id="14634"></path></svg>