<?xml version="1.0" standalone="no"?><!DOCTYPE svg PUBLIC "-//W3C//DTD SVG 1.1//EN" "http://www.w3.org/Graphics/SVG/1.1/DTD/svg11.dtd"><svg t="1783677986087" class="icon" viewBox="0 0 1024 1024" version="1.1" xmlns="http://www.w3.org/2000/svg" p-id="4787" xmlns:xlink="http://www.w3.org/1999/xlink" width="256" height="256"><path d="M497.371429 0c25.746286 0.219429 51.419429 2.340571 76.873142 6.363429 22.674286 3.364571 45.202286 8.192 67.291429 14.555428l22.893714 85.430857v0.073143l0.073143 0.219429v0.219428l0.073143 0.073143 12.141714 45.348572c14.774857 7.314286 29.037714 15.36 42.788572 24.429714l45.129143-12.068572h0.146285l0.292572-0.146285h0.073143l85.430857-22.893715c16.530286 15.945143 32.036571 32.987429 46.299428 51.053715 15.798857 19.821714 30.793143 40.667429 43.885715 63.341714 12.726857 22.381714 23.698286 45.714286 32.914285 69.778286 8.484571 21.284571 15.506286 43.227429 21.065143 65.536l-96.256 96.256c0.438857 8.118857 1.170286 16.164571 1.170286 24.429714 0 8.265143-0.731429 16.310857-1.243429 24.429714l33.426286 33.353143 0.146286 0.146286 0.146285 0.219428h0.073143l62.537143 62.537143a505.636571 505.636571 0 0 1-21.065143 65.536c-9.289143 23.698286-19.748571 47.104-32.914285 69.778286a514.194286 514.194286 0 0 1-43.958858 63.341714 513.170286 513.170286 0 0 1-46.226285 50.980572l-85.430857-22.893715h-0.365715l-0.219428-0.073142-45.129143-12.068572a407.332571 407.332571 0 0 1-42.788572 24.502857l-12.068571 45.348572-0.146286 0.146285v0.365715l-22.893714 85.430857c-22.089143 6.363429-44.617143 11.190857-67.291429 14.482286A507.465143 507.465143 0 0 1 497.298286 1024a511.634286 511.634286 0 0 1-76.8-6.436571 504.539429 504.539429 0 0 1-67.291429-14.555429l-22.893714-85.357714-0.146286-0.365715v-0.219428l-12.214857-45.348572a408.722286 408.722286 0 0 1-42.861714-24.429714l-44.982857 12.068572h-0.219429l-0.219429 0.146285h-0.146285l-85.357715 22.893715a508.708571 508.708571 0 0 1-46.299428-51.053715 507.538286 507.538286 0 0 1-43.885714-63.341714 514.56 514.56 0 0 1-32.914286-69.778286A513.024 513.024 0 0 1 0 632.685714l62.537143-62.537143 0.292571-0.292571 0.146286-0.146286 33.353143-33.353143C95.817143 528.237714 95.085714 520.265143 95.085714 512c0-8.192 0.731429-16.310857 1.170286-24.356571l-33.718857-33.718858v-0.073142L0 391.314286c5.558857-22.308571 12.580571-44.178286 21.065143-65.536a514.194286 514.194286 0 0 1 32.914286-69.778286c13.019429-22.235429 27.794286-43.373714 43.958857-63.341714a508.342857 508.342857 0 0 1 46.226285-51.053715l85.430858 22.893715h0.073142l0.292572 0.146285h0.146286l0.073142 0.073143 45.056 12.068572c13.604571-9.069714 28.013714-17.115429 42.788572-24.502857l12.214857-45.348572v-0.292571l0.073143-0.219429v-0.073143L353.28 20.918857c21.796571-6.436571 44.324571-11.044571 67.291429-14.555428A511.634286 511.634286 0 0 1 497.371429 0z m0 73.581714c-5.997714 0-11.922286 0.219429-17.846858 0.512a414.573714 414.573714 0 0 0-55.003428 5.705143c-3.364571 0.512-6.582857 1.170286-9.947429 1.755429l-1.974857 0.512-10.605714 39.497143-22.381714 83.456a324.169143 324.169143 0 0 0-50.029715 24.356571l-4.681143 2.779429a334.043429 334.043429 0 0 0-34.596571 24.356571l-83.382857-22.308571-39.497143-10.678858-1.316571 1.609143c-2.267429 2.56-4.534857 5.12-6.656 7.68-2.633143 3.145143-5.12 6.436571-7.753143 9.728a429.348571 429.348571 0 0 0-60.489143 104.886857c-1.609143 3.803429-3.145143 7.606857-4.608 11.483429a501.321143 501.321143 0 0 0-3.949714 11.556571l28.745142 28.745143 61.293715 61.293715a334.628571 334.628571 0 0 0-4.242286 47.177142c0 1.462857-0.219429 2.852571-0.219429 4.315429 0 1.462857 0.219429 2.852571 0.219429 4.315429 0.292571 15.798857 1.682286 31.524571 4.242286 47.104l-61.293715 61.293714-28.745142 28.818286 0.585142 1.901714 3.364572 9.728 4.608 11.337143c2.56 6.582857 5.339429 13.092571 8.265143 19.456a498.102857 498.102857 0 0 0 27.574857 50.468571l5.339428 8.265143c6.070857 9.216 12.434286 18.139429 19.309715 26.770286 2.633143 3.291429 5.12 6.582857 7.753143 9.728l6.582857 7.68 1.389714 1.536 39.497143-10.532572 83.382857-22.381714c10.971429 8.777143 22.601143 16.969143 34.669714 24.283429 17.334857 10.752 35.620571 19.894857 54.637715 27.209142l22.381714 83.456 10.605714 39.497143 1.974857 0.438857c3.364571 0.731429 6.656 1.316571 10.020572 1.828572a406.747429 406.747429 0 0 0 44.982857 5.193143l9.874286 0.585143a408.649143 408.649143 0 0 0 78.555428-3.876572c4.096-0.585143 8.192-1.170286 12.214857-1.901714l9.947429-1.828572c0.731429-0.073143 1.316571-0.292571 1.974857-0.438857l10.678857-39.497143 22.308572-83.456a326.948571 326.948571 0 0 0 38.912-17.554285l4.096-2.486857c16.310857-9.142857 31.817143-19.748571 46.372571-31.451429H704.365714l83.382857 22.381714 39.497143 10.532572 1.389715-1.536a457.142857 457.142857 0 0 0 14.262857-17.408c6.875429-8.630857 13.385143-17.554286 19.382857-26.770286l5.339428-8.118857c3.145143-5.12 6.363429-10.24 9.362286-15.36a430.08 430.08 0 0 0 34.450286-75.702857l0.585143-1.974857-90.038857-90.112c2.194286-13.897143 3.584-28.013714 4.022857-42.130286L826.514286 512c0-3.145143-0.365714-6.217143-0.438857-9.362286a332.653714 332.653714 0 0 0-4.022858-42.130285l61.293715-61.293715 28.745143-28.745143-0.585143-1.974857a423.716571 423.716571 0 0 0-3.364572-9.581714c-1.462857-3.876571-3.072-7.68-4.608-11.483429a408.502857 408.502857 0 0 0-35.84-69.997714l-5.339428-8.192-6.656-9.801143a410.185143 410.185143 0 0 0-12.726857-16.969143c-2.56-3.218286-5.046857-6.509714-7.68-9.654857l-6.582858-7.753143-1.389714-1.462857-39.497143 10.532572-83.382857 22.381714a330.459429 330.459429 0 0 0-46.299428-31.451429l-4.096-2.486857c-12.434286-6.802286-25.6-12.434286-38.985143-17.554285l-22.308572-83.456-10.532571-39.497143-2.048-0.512-9.947429-1.828572a344.502857 344.502857 0 0 0-12.361143-1.755428 407.917714 407.917714 0 0 0-60.489142-4.388572zM512 292.571429a219.428571 219.428571 0 1 1 0 438.857142 219.428571 219.428571 0 0 1 0-438.857142z m0 73.142857c-80.676571 0-146.285714 65.609143-146.285714 146.285714s65.609143 146.285714 146.285714 146.285714 146.285714-65.609143 146.285714-146.285714-65.609143-146.285714-146.285714-146.285714z" fill="#2c2c2c" p-id="4788"></path></svg>