<?xml version="1.0" standalone="no"?><!DOCTYPE svg PUBLIC "-//W3C//DTD SVG 1.1//EN" "http://www.w3.org/Graphics/SVG/1.1/DTD/svg11.dtd"><svg t="1782895532322" class="icon" viewBox="-96 -96 1216 1216" version="1.1" xmlns="http://www.w3.org/2000/svg" p-id="10061" width="200" height="200" xmlns:xlink="http://www.w3.org/1999/xlink"><path d="M598.4 979.2h-169.6c-28.8 0-51.2-19.2-54.4-48l-12.8-96c-16-9.6-32-16-48-28.8L224 844.8c-25.6 9.6-54.4 0-67.2-25.6L70.4 672c-12.8-22.4-6.4-54.4 12.8-70.4L160 540.8V512v-28.8l-76.8-60.8c-19.2-16-25.6-44.8-12.8-70.4l86.4-150.4c12.8-22.4 41.6-32 67.2-22.4l89.6 35.2 48-28.8 12.8-96c3.2-25.6 25.6-48 54.4-48h169.6c25.6 0 51.2 19.2 54.4 48l12.8 96c16 6.4 32 16 48 28.8l89.6-38.4c25.6-9.6 54.4 0 67.2 25.6l86.4 150.4c12.8 22.4 6.4 54.4-12.8 70.4L864 483.2c3.2 19.2 3.2 38.4 0 54.4l76.8 60.8c22.4 16 25.6 48 12.8 70.4l-86.4 150.4c-12.8 22.4-41.6 35.2-67.2 22.4l-89.6-35.2-48 28.8-12.8 96c-3.2 28.8-25.6 48-51.2 48z m-163.2-64h150.4l19.2-128 16-3.2c22.4-9.6 44.8-22.4 64-38.4l16-12.8 115.2 48 80-134.4-96-76.8 3.2-19.2c3.2-25.6 3.2-51.2 0-76.8l-3.2-19.2 92.8-76.8-73.6-134.4L700.8 288l-16-12.8c-19.2-16-41.6-28.8-64-38.4l-16-6.4-16-124.8h-153.6L416 230.4l-16 6.4c-25.6 12.8-41.6 22.4-64 38.4l-12.8 12.8-115.2-44.8-76.8 134.4 96 76.8-3.2 19.2c0 12.8-3.2 25.6-3.2 38.4 0 12.8 0 25.6 3.2 38.4l3.2 19.2-96 76.8 80 137.6 115.2-48 16 16c19.2 16 41.6 25.6 64 35.2l16 6.4 12.8 121.6z" p-id="10062"></path><path d="M512 329.6c-99.2 0-179.2 80-179.2 182.4s80 182.4 179.2 182.4 182.4-80 182.4-182.4-83.2-182.4-182.4-182.4z m0 300.8c-64 0-115.2-51.2-115.2-118.4s51.2-118.4 115.2-118.4 118.4 51.2 118.4 118.4-54.4 118.4-118.4 118.4z" p-id="10063"></path></svg>