<?xml version="1.0" standalone="no"?><!DOCTYPE svg PUBLIC "-//W3C//DTD SVG 1.1//EN" "http://www.w3.org/Graphics/SVG/1.1/DTD/svg11.dtd"><svg t="1782375063842" class="icon" viewBox="0 0 1024 1024" version="1.1" xmlns="http://www.w3.org/2000/svg" p-id="9553" xmlns:xlink="http://www.w3.org/1999/xlink" width="200" height="200"><path d="M880 960H144a32 32 0 0 1-32-32V304a32 32 0 0 1 32-32h184.53c20.19 0 37.09 16.52 36.71 36.7a36 36 0 0 1-36 35.3H184v544h656V344H695.67c-20.18 0-37.09-16.52-36.7-36.7A36 36 0 0 1 695 272h185a32 32 0 0 1 32 32v624a32 32 0 0 1-32 32z" p-id="9554"></path><path d="M691.73 519.38a36 36 0 0 0-50.91-0.9l-93.24 90V100.69a36 36 0 0 0-72 0v513.14l-92.51-94.62a36 36 0 0 0-51.48 50.34l152.56 156a32 32 0 0 0 45.1 0.65l161.58-156a36 36 0 0 0 0.9-50.82z" p-id="9555"></path></svg>